<svg width="100" height="100" viewBox="0 0 100 100" fill="none" xmlns="http://www.w3.org/2000/svg">
  <path d="M72.5 35.5C79.5 45.5 75.5 65.5 62.5 75.5C49.5 85.5 30.5 82.5 19.5 68.5C8.5 54.5 12.5 35.5 25.5 22.5C38.5 9.5 65.5 25.5 72.5 35.5Z" fill="#1b9aaa" fill-opacity="0.15"/>
  <path d="M60.5 40.5C65.5 48.5 62.5 60.5 55.5 65.5C48.5 70.5 35.5 68.5 29.5 58.5C23.5 48.5 26.5 36.5 34.5 30.5C42.5 24.5 55.5 32.5 60.5 40.5Z" fill="#1b9aaa" fill-opacity="0.2"/>
  <circle cx="45" cy="45" r="3" fill="#1b9aaa" fill-opacity="0.4"/>
  <circle cx="55" cy="55" r="2" fill="#1b9aaa" fill-opacity="0.4"/>
  <circle cx="35" cy="60" r="2.5" fill="#1b9aaa" fill-opacity="0.4"/>
</svg>
